<svg width="138" height="24" viewBox="0 0 138 24" fill="none" xmlns="http://www.w3.org/2000/svg">
<path d="M6.144 6.592C7.53067 6.592 8.68267 6.944 9.6 7.648C10.5173 8.352 11.136 9.30667 11.456 10.512H9.52C9.25333 9.82933 8.82667 9.29067 8.24 8.896C7.664 8.49067 6.95467 8.288 6.112 8.288C5.44 8.288 4.83733 8.45333 4.304 8.784C3.78133 9.11467 3.36533 9.58933 3.056 10.208C2.75733 10.816 2.608 11.5307 2.608 12.352C2.608 13.1627 2.75733 13.8773 3.056 14.496C3.36533 15.104 3.78133 15.5733 4.304 15.904C4.83733 16.2347 5.44 16.4 6.112 16.4C6.95467 16.4 7.664 16.2027 8.24 15.808C8.82667 15.4027 9.25333 14.864 9.52 14.192H11.456C11.136 15.3973 10.5173 16.352 9.6 17.056C8.68267 17.7493 7.53067 18.096 6.144 18.096C5.07733 18.096 4.13333 17.856 3.312 17.376C2.49067 16.8853 1.856 16.208 1.408 15.344C0.96 14.4693 0.736 13.472 0.736 12.352C0.736 11.232 0.96 10.24 1.408 9.376C1.856 8.50133 2.49067 7.81867 3.312 7.328C4.13333 6.83733 5.07733 6.592 6.144 6.592ZM15.0999 6.16V18H13.2759V6.16H15.0999ZM21.3391 9.072C22.1925 9.072 22.9605 9.25333 23.6431 9.616C24.3258 9.97867 24.8591 10.5013 25.2431 11.184C25.6271 11.8667 25.8191 12.6667 25.8191 13.584C25.8191 14.512 25.6271 15.3173 25.2431 16C24.8591 16.6827 24.3258 17.2053 23.6431 17.568C22.9605 17.9307 22.1925 18.112 21.3391 18.112C20.4858 18.112 19.7178 17.9307 19.0351 17.568C18.3631 17.2053 17.8298 16.6827 17.4351 16C17.0511 15.3067 16.8591 14.5013 16.8591 13.584C16.8591 12.6667 17.0511 11.8667 17.4351 11.184C17.8298 10.5013 18.3631 9.97867 19.0351 9.616C19.7178 9.25333 20.4858 9.072 21.3391 9.072ZM21.3391 10.656C20.8698 10.656 20.4378 10.7627 20.0431 10.976C19.6485 11.1893 19.3285 11.52 19.0831 11.968C18.8485 12.4053 18.7311 12.944 18.7311 13.584C18.7311 14.2347 18.8485 14.7787 19.0831 15.216C19.3285 15.6533 19.6485 15.9787 20.0431 16.192C20.4378 16.4053 20.8698 16.512 21.3391 16.512C21.8085 16.512 22.2405 16.4053 22.6351 16.192C23.0298 15.9787 23.3445 15.6533 23.5791 15.216C23.8245 14.7787 23.9471 14.2347 23.9471 13.584C23.9471 12.944 23.8245 12.4053 23.5791 11.968C23.3445 11.52 23.0298 11.1893 22.6351 10.976C22.2405 10.7627 21.8085 10.656 21.3391 10.656ZM32.5008 9.04C33.5248 9.04 34.3461 9.37067 34.9648 10.032C35.5834 10.6933 35.8928 11.6373 35.8928 12.864V18H34.0688V13.056C34.0688 12.2667 33.8661 11.6587 33.4608 11.232C33.0554 10.7947 32.5008 10.576 31.7968 10.576C31.0714 10.576 30.4901 10.8107 30.0528 11.28C29.6154 11.7387 29.3968 12.416 29.3968 13.312V18H27.5728V9.184H29.3968V11.12C29.6314 10.4587 30.0261 9.94667 30.5807 9.584C31.1354 9.22133 31.7754 9.04 32.5008 9.04ZM46.2179 13.168C46.2179 13.4667 46.1965 13.728 46.1539 13.952H39.3699C39.4019 14.8587 39.6525 15.5307 40.1219 15.968C40.5912 16.4053 41.1725 16.624 41.8659 16.624C42.4739 16.624 42.9859 16.4693 43.4019 16.16C43.8285 15.8507 44.0899 15.44 44.1859 14.928H46.1379C46.0205 15.5467 45.7752 16.096 45.4019 16.576C45.0285 17.056 44.5432 17.4347 43.9459 17.712C43.3485 17.9787 42.6819 18.112 41.9459 18.112C41.0925 18.112 40.3352 17.9307 39.6739 17.568C39.0232 17.2053 38.5112 16.6827 38.1379 16C37.7645 15.3173 37.5779 14.512 37.5779 13.584C37.5779 12.6667 37.7645 11.8667 38.1379 11.184C38.5112 10.5013 39.0232 9.97867 39.6739 9.616C40.3352 9.25333 41.0925 9.072 41.9459 9.072C42.8099 9.072 43.5619 9.25333 44.2019 9.616C44.8525 9.968 45.3485 10.4587 45.6899 11.088C46.0419 11.7067 46.2179 12.4 46.2179 13.168ZM44.3779 13.12C44.3992 12.544 44.2979 12.064 44.0739 11.68C43.8605 11.2853 43.5619 10.9973 43.1779 10.816C42.8045 10.624 42.3939 10.528 41.9459 10.528C41.2312 10.528 40.6339 10.7467 40.1539 11.184C39.6739 11.6213 39.4125 12.2667 39.3699 13.12H44.3779ZM56.785 9.072C57.553 9.072 58.2357 9.25333 58.833 9.616C59.441 9.97867 59.9157 10.5013 60.257 11.184C60.5983 11.8667 60.769 12.6667 60.769 13.584C60.769 14.512 60.5983 15.3173 60.257 16C59.9157 16.6827 59.441 17.2053 58.833 17.568C58.2357 17.9307 57.553 18.112 56.785 18.112C55.985 18.112 55.3023 17.9147 54.737 17.52C54.1717 17.1253 53.777 16.6027 53.553 15.952V22.192H51.729V9.184H53.553V11.232C53.777 10.5813 54.1717 10.0587 54.737 9.664C55.3023 9.26933 55.985 9.072 56.785 9.072ZM56.225 10.672C55.713 10.672 55.2543 10.7947 54.849 11.04C54.4437 11.2747 54.1237 11.616 53.889 12.064C53.6543 12.5013 53.537 13.008 53.537 13.584C53.537 14.1707 53.6543 14.6827 53.889 15.12C54.1237 15.5573 54.4437 15.8987 54.849 16.144C55.2543 16.3787 55.713 16.496 56.225 16.496C57.0357 16.496 57.6863 16.24 58.177 15.728C58.6677 15.2053 58.913 14.4907 58.913 13.584C58.913 12.688 58.6677 11.9787 58.177 11.456C57.6863 10.9333 57.0357 10.672 56.225 10.672ZM64.3499 10.912C64.6485 10.336 65.0752 9.88267 65.6299 9.552C66.1845 9.21067 66.8245 9.04 67.5499 9.04V11.024H67.0059C66.2059 11.024 65.5605 11.2213 65.0699 11.616C64.5899 12 64.3499 12.64 64.3499 13.536V18H62.5259V9.184H64.3499V10.912ZM72.9485 9.072C73.8018 9.072 74.5698 9.25333 75.2525 9.616C75.9352 9.97867 76.4685 10.5013 76.8525 11.184C77.2365 11.8667 77.4285 12.6667 77.4285 13.584C77.4285 14.512 77.2365 15.3173 76.8525 16C76.4685 16.6827 75.9352 17.2053 75.2525 17.568C74.5698 17.9307 73.8018 18.112 72.9485 18.112C72.0952 18.112 71.3272 17.9307 70.6445 17.568C69.9725 17.2053 69.4392 16.6827 69.0445 16C68.6605 15.3067 68.4685 14.5013 68.4685 13.584C68.4685 12.6667 68.6605 11.8667 69.0445 11.184C69.4392 10.5013 69.9725 9.97867 70.6445 9.616C71.3272 9.25333 72.0952 9.072 72.9485 9.072ZM72.9485 10.656C72.4792 10.656 72.0472 10.7627 71.6525 10.976C71.2578 11.1893 70.9378 11.52 70.6925 11.968C70.4578 12.4053 70.3405 12.944 70.3405 13.584C70.3405 14.2347 70.4578 14.7787 70.6925 15.216C70.9378 15.6533 71.2578 15.9787 71.6525 16.192C72.0472 16.4053 72.4792 16.512 72.9485 16.512C73.4178 16.512 73.8498 16.4053 74.2445 16.192C74.6392 15.9787 74.9538 15.6533 75.1885 15.216C75.4338 14.7787 75.5565 14.2347 75.5565 13.584C75.5565 12.944 75.4338 12.4053 75.1885 11.968C74.9538 11.52 74.6392 11.1893 74.2445 10.976C73.8498 10.7627 73.4178 10.656 72.9485 10.656ZM80.1741 7.664C79.8221 7.664 79.5341 7.568 79.3101 7.376C79.0968 7.184 78.9901 6.93333 78.9901 6.624C78.9901 6.31467 79.0968 6.05867 79.3101 5.856C79.5341 5.65333 79.8221 5.552 80.1741 5.552C80.5261 5.552 80.8088 5.65333 81.0221 5.856C81.2355 6.05867 81.3421 6.31467 81.3421 6.624C81.3421 6.93333 81.2355 7.184 81.0221 7.376C80.8088 7.568 80.5261 7.664 80.1741 7.664ZM77.6141 20.592H78.2381C78.5901 20.592 78.8461 20.512 79.0061 20.352C79.1768 20.2027 79.2621 19.9413 79.2621 19.568V9.184H81.1021V19.584C81.1021 21.3227 80.2275 22.192 78.4781 22.192H77.6141V20.592ZM91.4679 13.168C91.4679 13.4667 91.4465 13.728 91.4039 13.952H84.6199C84.6519 14.8587 84.9025 15.5307 85.3719 15.968C85.8412 16.4053 86.4225 16.624 87.1159 16.624C87.7239 16.624 88.2359 16.4693 88.6519 16.16C89.0785 15.8507 89.3399 15.44 89.4359 14.928H91.3879C91.2705 15.5467 91.0252 16.096 90.6519 16.576C90.2785 17.056 89.7932 17.4347 89.1959 17.712C88.5985 17.9787 87.9319 18.112 87.1959 18.112C86.3425 18.112 85.5852 17.9307 84.9239 17.568C84.2732 17.2053 83.7612 16.6827 83.3879 16C83.0145 15.3173 82.8279 14.512 82.8279 13.584C82.8279 12.6667 83.0145 11.8667 83.3879 11.184C83.7612 10.5013 84.2732 9.97867 84.9239 9.616C85.5852 9.25333 86.3425 9.072 87.1959 9.072C88.0599 9.072 88.8119 9.25333 89.4519 9.616C90.1025 9.968 90.5985 10.4587 90.9399 11.088C91.2919 11.7067 91.4679 12.4 91.4679 13.168ZM89.6279 13.12C89.6492 12.544 89.5479 12.064 89.3239 11.68C89.1105 11.2853 88.8119 10.9973 88.4279 10.816C88.0545 10.624 87.6439 10.528 87.1959 10.528C86.4812 10.528 85.8839 10.7467 85.4039 11.184C84.9239 11.6213 84.6625 12.2667 84.6199 13.12H89.6279ZM97.149 9.072C98.2903 9.072 99.2343 9.376 99.981 9.984C100.728 10.5813 101.192 11.3973 101.373 12.432H99.437C99.3303 11.8773 99.069 11.4453 98.653 11.136C98.2477 10.816 97.7357 10.656 97.117 10.656C96.413 10.656 95.8263 10.9067 95.357 11.408C94.8877 11.8987 94.653 12.624 94.653 13.584C94.653 14.544 94.8877 15.2747 95.357 15.776C95.8263 16.2773 96.413 16.528 97.117 16.528C97.7357 16.528 98.2477 16.368 98.653 16.048C99.069 15.728 99.3303 15.2907 99.437 14.736H101.373C101.192 15.7707 100.728 16.592 99.981 17.2C99.2343 17.808 98.2903 18.112 97.149 18.112C96.2957 18.112 95.5383 17.9307 94.877 17.568C94.2263 17.2053 93.7143 16.6827 93.341 16C92.9677 15.3173 92.781 14.512 92.781 13.584C92.781 12.6667 92.9677 11.8667 93.341 11.184C93.7143 10.5013 94.2263 9.97867 94.877 9.616C95.5383 9.25333 96.2957 9.072 97.149 9.072ZM107.567 16.416V18H106.447C105.509 18 104.794 17.776 104.303 17.328C103.823 16.8693 103.583 16.112 103.583 15.056V10.736H102.319V9.184H103.583V6.992H105.423V9.184H107.551V10.736H105.423V15.088C105.423 15.5893 105.514 15.936 105.695 16.128C105.887 16.32 106.218 16.416 106.687 16.416H107.567Z" fill="#FFD3AF"/>
<path d="M137.354 13.3536C137.549 13.1583 137.549 12.8417 137.354 12.6464L134.172 9.46447C133.976 9.2692 133.66 9.2692 133.464 9.46447C133.269 9.65973 133.269 9.97631 133.464 10.1716L136.293 13L133.464 15.8284C133.269 16.0237 133.269 16.3403 133.464 16.5355C133.66 16.7308 133.976 16.7308 134.172 16.5355L137.354 13.3536ZM117 13.5L137 13.5V12.5L117 12.5V13.5Z" fill="white"/>
</svg>
